<?xml version="1.0" encoding="utf-8"?>
<!-- Generator: Adobe Illustrator 16.0.0, SVG Export Plug-In . SVG Version: 6.00 Build 0)  -->
<!DOCTYPE svg PUBLIC "-//W3C//DTD SVG 1.1//EN" "http://www.w3.org/Graphics/SVG/1.1/DTD/svg11.dtd">
<svg version="1.1" id="Layer_1_copy_3" xmlns="http://www.w3.org/2000/svg" xmlns:xlink="http://www.w3.org/1999/xlink" x="0px"
	 y="0px" width="126px" height="126px" viewBox="0 0 126 126" enable-background="new 0 0 126 126" xml:space="preserve">
<g>
	<path d="M63,8.818C33.076,8.818,8.818,33.076,8.818,63S33.076,117.182,63,117.182S117.182,92.924,117.182,63S92.924,8.818,63,8.818
		z M77.531,42.94c4.797,0,8.7,3.903,8.7,8.701c0,1.381-1.119,2.5-2.5,2.5s-2.5-1.119-2.5-2.5c0-2.041-1.66-3.701-3.7-3.701
		c-2.043,0-3.703,1.66-3.703,3.701c0,1.381-1.119,2.5-2.5,2.5s-2.5-1.119-2.5-2.5C68.828,46.843,72.732,42.94,77.531,42.94z
		 M49.808,42.914c4.797,0,8.701,3.903,8.701,8.701c0,1.381-1.119,2.5-2.5,2.5s-2.5-1.119-2.5-2.5c0-2.041-1.66-3.701-3.701-3.701
		c-2.042,0-3.703,1.66-3.703,3.701c0,1.381-1.119,2.5-2.5,2.5s-2.5-1.119-2.5-2.5C41.105,46.817,45.009,42.914,49.808,42.914z
		 M35.175,66.771c0.001-3.435,4.556-7.535,4.556-7.535c0.438,2.747,1.52,4.344,1.52,4.344c1.218,1.818,1.218,3.507,1.218,3.507
		c0,3.712-3.692,3.679-3.692,3.679C35.175,70.765,35.175,66.771,35.175,66.771z M85.424,87.916c-1.52,0.66-3.285-0.042-3.943-1.563
		c-2.894-6.689-9.731-11.011-17.421-11.011c-7.869,0-14.747,4.319-17.523,11.004c-0.48,1.154-1.596,1.85-2.771,1.85
		c-0.385,0-0.773-0.074-1.15-0.23c-1.53-0.636-2.256-2.392-1.619-3.921c3.71-8.932,12.764-14.703,23.064-14.703
		c10.084,0,19.084,5.742,22.927,14.629C87.645,85.492,86.946,87.258,85.424,87.916z"/>
</g>
</svg>
